<svg width="1440" height="600" viewBox="0 0 1440 600" fill="none" xmlns="http://www.w3.org/2000/svg" preserveAspectRatio="xMidYMid slice">
    <defs>
        <linearGradient id="sinauGradient" x1="0%" y1="0%" x2="100%" y2="100%">
            <stop offset="0%" style="stop-color:#009978; stop-opacity:0.8" />
            <stop offset="100%" style="stop-color:#006650; stop-opacity:0.95" />
        </linearGradient>
        <pattern id="digitalPattern" x="0" y="0" width="100" height="100" patternUnits="userSpaceOnUse">
            <circle cx="50" cy="50" r="2" fill="white" opacity="0.3"/>
            <path d="M50 50L80 20M50 50L20 80M50 50L80 80M50 50L20 20" stroke="white" stroke-width="0.5" opacity="0.1"/>
        </pattern>
    </defs>
    
    <rect width="1440" height="600" fill="url(#sinauGradient)"/>

    <rect width="1440" height="600" fill="url(#digitalPattern)"/>
    
    <path d="M0 500C300 550 600 450 900 500C1200 550 1350 580 1440 600V600H0V500Z" fill="#005540" opacity="0.5"/>
    <path d="M0 550C400 580 800 520 1200 560C1300 570 1400 590 1440 600V600H0V550Z" fill="#004433" opacity="0.6"/>

    <circle cx="1300" cy="100" r="200" fill="white" opacity="0.05"/>
</svg>