<svg width="600" height="400" viewBox="0 0 600 400" fill="none" xmlns="http://www.w3.org/2000/svg">
    <path d="M450.5 300C450.5 380 370.5 420 290 420C209.5 420 129.5 380 129.5 300C129.5 220 209.5 180 290 180C370.5 180 450.5 220 450.5 300Z" fill="#E6F7F3" opacity="0.7"/>
    <circle cx="300" cy="300" r="180" fill="#F0FCF9" opacity="0.5"/>

    <rect x="150" y="350" width="300" height="15" rx="5" fill="#009978" opacity="0.2"/>

    <path d="M200 350L200 320C200 310 210 300 230 300C250 300 280 310 300 320C320 310 350 300 370 300C390 300 400 310 400 320V350" stroke="#333" stroke-width="3" stroke-linecap="round" stroke-linejoin="round" fill="white"/>
    <path d="M300 320V350" stroke="#333" stroke-width="2" stroke-linecap="round"/>
    <path d="M230 315H280 M230 325H270 M320 315H370 M330 325H370" stroke="#CCC" stroke-width="2" stroke-linecap="round"/>

    <rect x="250" y="280" width="100" height="60" rx="4" fill="#333"/>
    <rect x="260" y="290" width="80" height="40" rx="2" fill="#E6F7F3"/> <path d="M240 340H360L350 350H250L240 340Z" fill="#555"/> <path d="M300 290C300 290 300 250 300 220C300 190 320 170 340 150" stroke="#009978" stroke-width="4" stroke-linecap="round"/>
    <path d="M300 250C280 240 260 250 260 270C270 275 280 270 300 250Z" fill="#009978"/>
    <path d="M300 220C320 210 340 220 340 240C330 245 320 240 300 220Z" fill="#009978"/>
    <path d="M320 180C300 170 280 180 280 200C290 205 300 200 320 180Z" fill="#009978"/>
    <circle cx="340" cy="150" r="15" fill="#FFCCAA"/>
    <circle cx="340" cy="150" r="8" fill="white" opacity="0.5"/>

    <circle cx="200" cy="200" r="20" fill="#E6F7F3"/>
    <circle cx="220" cy="210" r="15" fill="#E6F7F3"/>
    <circle cx="180" cy="210" r="15" fill="#E6F7F3"/>
    <path d="M380 200C390 190 400 200 410 210 M400 180C410 170 420 180 430 190" stroke="#009978" stroke-width="2" stroke-linecap="round" stroke-opacity="0.5"/>

    <circle cx="220" cy="330" r="15" fill="#333"/> <path d="M220 345C200 360 240 360 220 345" stroke="#333" stroke-width="10" stroke-linecap="round"/> </svg>