<svg width="600" height="500" viewBox="0 0 600 500" fill="none" xmlns="http://www.w3.org/2000/svg">
    <path d="M485.5 358C485.5 448.5 388.5 498 299 498C209.5 498 123.5 435.5 89.5 358C55.5 280.5 98.5 197 165 137C231.5 77 341.5 58 418.5 106C495.5 154 485.5 267.5 485.5 358Z" fill="#E6F7F3"/>
    
    <rect x="100" y="400" width="400" height="20" rx="5" fill="#333333"/>
    <rect x="130" y="420" width="20" height="80" rx="2" fill="#333333" opacity="0.2"/>
    <rect x="450" y="420" width="20" height="80" rx="2" fill="#333333" opacity="0.2"/>

    <path d="M220 400C220 400 220 320 220 300C220 260 260 260 300 260C340 260 380 260 380 300C380 320 380 400 380 400H220Z" fill="#009978"/>
    <circle cx="300" cy="220" r="50" fill="#FFCCAA"/>
    <path d="M300 170C270 170 250 190 250 220C250 225 252 230 255 235C250 220 260 170 300 170Z" fill="#333333"/>
    <path d="M300 170C330 170 350 190 350 220C350 230 345 240 340 245C345 220 340 170 300 170Z" fill="#333333"/>

    <rect x="250" y="380" width="100" height="10" rx="2" fill="#555555"/>
    <path d="M260 380L260 320C260 315 264 310 270 310H330C336 310 340 315 340 320L340 380H260Z" fill="#333333"/>
    <rect x="270" y="320" width="60" height="40" rx="2" fill="#222222"/>
    <rect x="275" y="325" width="30" height="2" rx="1" fill="#009978"/>
    <rect x="275" y="330" width="40" height="2" rx="1" fill="#666666"/>
    <rect x="275" y="335" width="20" height="2" rx="1" fill="#666666"/>
    <rect x="275" y="340" width="35" height="2" rx="1" fill="#666666"/>

    <g transform="translate(400, 150) rotate(15)">
        <rect x="0" y="0" width="60" height="80" rx="5" fill="white" stroke="#009978" stroke-width="2"/>
        <rect x="10" y="10" width="40" height="40" rx="20" fill="#E6F7F3"/>
        <path d="M20 30L30 40L40 20" stroke="#009978" stroke-width="3" stroke-linecap="round" stroke-linejoin="round"/>
        <rect x="10" y="60" width="40" height="4" rx="2" fill="#CCCCCC"/>
    </g>

    <circle cx="150" cy="200" r="30" fill="white" stroke="#009978" stroke-width="2"/>
    <path d="M140 190L130 200L140 210 M160 190L170 200L160 210" stroke="#333333" stroke-width="3" stroke-linecap="round" stroke-linejoin="round"/>

    <circle cx="450" cy="300" r="5" fill="#009978"/>
    <circle cx="470" cy="280" r="3" fill="#009978" opacity="0.5"/>
    <circle cx="120" cy="300" r="5" fill="#009978"/>
</svg>